# xmcd CD database file
#
# Track frame offsets:
#	150
#	12332
#	24018
#	38006
#	51575
#	65259
#	80053
#	92082
#	106952
#	122185
#	136602
#	150166
#	161077
#	175901
#	186114
#	197322
#	210403
#	223064
#	236179
#	249032
#
# Disc length: 3473 seconds
#
# Revision: 1
# Processed by: cddbd v1.5.1PL2 Copyright (c) Steve Scherf et al.
# Submitted via: CDex 1.51
#
DISCID=fe0d8f14
DTITLE=Ella Fitzgerald - Lullaby Of Birdland, 1947 - 1954
DYEAR=2005
DGENRE=Jazz
TTITLE0=My Baby Likes To Be-Bop - 1847
TTITLE1=Robbins Nest- 1947
TTITLE2=Black Coffee - 1949
TTITLE3=A New Shade O Blues - 1949
TTITLE4=I Hadn't Anyone Till You - 1949
TTITLE5=A Man Wrote A Song - 1949
TTITLE6=In The Evening When The Sun Goes Down - 1949
TTITLE7=I've Got The World On A String - 1950
TTITLE8=Peas And Rice - 1050
TTITLE9=Because Of Rain - 1951
TTITLE10=Love You Madly - 1951
TTITLE11=Goody Goody - 1952
TTITLE12=Baby Doll - 1951
TTITLE13=My Bonnie Lies Over The Ocean - 1952
TTITLE14=Walkin' The River - 1952
TTITLE15=Angel Eyes - 1951
TTITLE16=Blue Lou - 1953
TTITLE17=Melancholy Me - 1952
TTITLE18=Lullaby Of Birdland - 1954
TTITLE19=Later - 1954
EXTD=YEAR: 2005
EXTT0=
EXTT1=
EXTT2=
EXTT3=
EXTT4=
EXTT5=
EXTT6=
EXTT7=
EXTT8=
EXTT9=
EXTT10=
EXTT11=
EXTT12=
EXTT13=
EXTT14=
EXTT15=
EXTT16=
EXTT17=
EXTT18=
EXTT19=
PLAYORDER=
